<?xml version="1.0" encoding="UTF-8"?>
<!DOCTYPE svg PUBLIC "-//W3C//DTD SVG 1.1//EN" "http://www.w3.org/Graphics/SVG/1.1/DTD/svg11.dtd">
<!-- Creator: CorelDRAW 2021 (64 Bit) -->
<svg xmlns="http://www.w3.org/2000/svg" xml:space="preserve" width="250px" height="159px" version="1.1" style="shape-rendering:geometricPrecision; text-rendering:geometricPrecision; image-rendering:optimizeQuality; fill-rule:evenodd; clip-rule:evenodd"
viewBox="0 0 239.24 152.06"
 xmlns:xlink="http://www.w3.org/1999/xlink"
 xmlns:xodm="http://www.corel.com/coreldraw/odm/2003">
 <defs>
  <style type="text/css">
   <![CDATA[
    .str0 {stroke:#616181;stroke-width:0.17;stroke-miterlimit:22.9256}
    .str2 {stroke:white;stroke-width:1.4;stroke-miterlimit:22.9256}
    .str3 {stroke:#FF7272;stroke-width:1.05;stroke-miterlimit:22.9256}
    .str15 {stroke:#00CC99;stroke-width:0.35;stroke-miterlimit:22.9256}
    .str16 {stroke:#14D0A1;stroke-width:0.35;stroke-miterlimit:22.9256}
    .str1 {stroke:#1C1C49;stroke-width:0.35;stroke-miterlimit:22.9256}
    .str5 {stroke:#FF7B7B;stroke-width:0.35;stroke-miterlimit:22.9256}
    .str4 {stroke:#FF7B7B;stroke-width:0.35;stroke-miterlimit:22.9256;stroke-dasharray:1.400000}
    .str7 {stroke:#FF7B7B;stroke-width:0.35;stroke-miterlimit:22.9256;stroke-dasharray:1.440000 1.440000}
    .str14 {stroke:#FF7B7B;stroke-width:0.35;stroke-miterlimit:22.9256;stroke-dasharray:1.190000 1.190000}
    .str11 {stroke:#FF7B7B;stroke-width:0.35;stroke-miterlimit:22.9256;stroke-dasharray:1.420000 1.420000}
    .str12 {stroke:#FF7B7B;stroke-width:0.35;stroke-miterlimit:22.9256;stroke-dasharray:1.770000 1.770000}
    .str8 {stroke:#FF7B7B;stroke-width:0.35;stroke-miterlimit:22.9256;stroke-dasharray:1.360000 1.360000}
    .str10 {stroke:#FF7B7B;stroke-width:0.35;stroke-miterlimit:22.9256;stroke-dasharray:1.330000 1.330000}
    .str6 {stroke:#FF7B7B;stroke-width:0.35;stroke-miterlimit:22.9256;stroke-dasharray:1.340000 1.340000}
    .str13 {stroke:#FF7B7B;stroke-width:0.35;stroke-miterlimit:22.9256;stroke-dasharray:1.310000 1.310000}
    .str9 {stroke:#FF7B7B;stroke-width:0.35;stroke-miterlimit:22.9256;stroke-dasharray:1.180000 1.180000}
    .fil4 {fill:none;fill-rule:nonzero}
    .fil7 {fill:#000033;fill-rule:nonzero}
    .fil0 {fill:#086B9C;fill-rule:nonzero}
    .fil6 {fill:#0F6F9F;fill-rule:nonzero}
    .fil22 {fill:#14D0A1;fill-rule:nonzero}
    .fil1 {fill:#1C1C49;fill-rule:nonzero}
    .fil8 {fill:#21214E;fill-rule:nonzero}
    .fil18 {fill:#267DA8;fill-rule:nonzero}
    .fil16 {fill:#3083AC;fill-rule:nonzero}
    .fil24 {fill:#30D6AC;fill-rule:nonzero}
    .fil19 {fill:#4791B6;fill-rule:nonzero}
    .fil13 {fill:#4A92B7;fill-rule:nonzero}
    .fil5 {fill:#616181;fill-rule:nonzero}
    .fil3 {fill:#7A7A95;fill-rule:nonzero}
    .fil20 {fill:#85B6CE;fill-rule:nonzero}
    .fil12 {fill:#8CBAD1;fill-rule:nonzero}
    .fil26 {fill:#FF7272;fill-rule:nonzero}
    .fil21 {fill:#FF7B7B;fill-rule:nonzero}
    .fil9 {fill:#FF9797;fill-rule:nonzero}
    .fil2 {fill:#FFAFAF;fill-rule:nonzero}
    .fil11 {fill:white;fill-rule:nonzero}
    .fil14 {fill:#69A5C3;fill-rule:nonzero;fill-opacity:0.400000}
    .fil15 {fill:#BDD7E4;fill-rule:nonzero;fill-opacity:0.400000}
    .fil17 {fill:#006699;fill-rule:nonzero;fill-opacity:0.501961}
    .fil23 {fill:#00CC99;fill-rule:nonzero;fill-opacity:0.501961}
    .fil25 {fill:#14D0A1;fill-rule:nonzero;fill-opacity:0.501961}
    .fil10 {fill:#FF6666;fill-rule:nonzero;fill-opacity:0.501961}
   ]]>
  </style>
 </defs>
 <g id="Camada_x0020_1">
  <metadata id="CorelCorpID_0Corel-Layer"/>
  <g id="_2561430264368">
   <polygon class="fil0" points="101.43,85.24 101.43,84.51 105.64,82.73 105.64,83.52 102.31,84.88 105.64,86.27 105.64,87.05 "/>
   <polygon id="_1" class="fil0" points="106.13,88.14 107.99,81.55 108.62,81.55 106.76,88.14 "/>
   <polygon id="_2" class="fil0" points="113.31,85.24 109.11,87.05 109.11,86.27 112.43,84.88 109.11,83.52 109.11,82.73 113.31,84.51 "/>
   <g>
    <path class="fil1" d="M151.13 54.29c-0.53,11.44 -11.76,20.19 -20.2,20.71 -11.12,0.7 -19.07,-9.34 -20.19,-20.71 -0.94,-9.87 2.56,-9.73 5.15,-13.83 3.15,-4.97 9.06,-7.73 15.01,-7.73 11.16,0 20.93,6.16 20.23,21.56z"/>
    <rect class="fil2" x="123.13" y="73.92" width="15.64" height="19.56"/>
    <g>
     <g>
      <path class="fil2" d="M148.5 62.51c2.8,-4.23 6.34,-4.41 7.81,0.59 1.47,5.01 -3.4,9.14 -7.39,7.6 -3.99,-1.51 -0.42,-8.19 -0.42,-8.19z"/>
      <path class="fil3" d="M151.79 62.61c1.86,-0.35 2.84,5.22 -1.26,5.43l0.84 -1.96 -0.8 -1.61 1.22 -1.86z"/>
      <path class="fil4 str0" d="M149.9 68.81c2.38,-2.56 0.67,-4.31 0.67,-4.31 0,0 2.27,-4.65 3.18,-1.08"/>
     </g>
    </g>
    <g>
     <g>
      <path class="fil2" d="M113.23 62.51c-2.8,-4.23 -6.34,-4.41 -7.81,0.59 -1.47,5.01 3.4,9.14 7.39,7.6 3.99,-1.51 0.42,-8.19 0.42,-8.19z"/>
      <path class="fil3" d="M109.94 62.61c-1.86,-0.35 -2.84,5.22 1.26,5.43l-0.84 -1.96 0.8 -1.61 -1.22 -1.86z"/>
      <path class="fil4 str0" d="M111.83 68.81c-2.38,-2.56 -0.67,-4.31 -0.67,-4.31 0,0 -2.27,-4.65 -3.18,-1.08"/>
     </g>
    </g>
    <path class="fil5" d="M138.74 74.37l0 7.28c-5.64,7.63 -15.64,5.15 -15.64,5.15l0.17 -12.43 15.47 0z"/>
    <path class="fil2" d="M130.93 82.7l0 0c-9.34,0 -16.9,-7.56 -16.9,-16.9l0 -12.35c0,-6.3 5.11,-11.41 11.41,-11.41l10.99 0c6.3,0 11.41,5.11 11.41,11.41l0 12.35c0,9.34 -7.56,16.9 -16.91,16.9z"/>
    <path class="fil4 str1" d="M133.52 68c0,1.44 -1.15,2.59 -2.59,2.59 -1.43,0 -2.59,-1.15 -2.59,-2.59"/>
    <path class="fil1" d="M115.82 42.81c0,0 -2.98,-4.9 0.73,-9.24 0,0 2.7,4.93 -0.73,9.24z"/>
    <path class="fil1" d="M117.32 41.62c0,0 -4.13,3.99 -9.17,1.33 0,0 4.2,-3.68 9.17,-1.33z"/>
    <path class="fil6" d="M124.22 61.95c0,1.4 -0.6,2.52 -1.33,2.52 -0.74,0 -1.33,-1.12 -1.33,-2.52 0,-1.4 0.59,-2.52 1.33,-2.52 0.73,0 1.33,1.12 1.33,2.52z"/>
    <circle class="fil4 str2" transform="matrix(0.2622 -0.964999 0.964999 0.2622 122.222 61.7572)" r="6.79"/>
    <path class="fil6" d="M140.31 61.95c0,1.4 -0.59,2.52 -1.33,2.52 -0.73,0 -1.33,-1.12 -1.33,-2.52 0,-1.4 0.6,-2.52 1.33,-2.52 0.74,0 1.33,1.12 1.33,2.52z"/>
    <circle class="fil4 str2" transform="matrix(0.2669 -0.963699 0.963699 0.2669 139.665 61.7829)" r="6.79"/>
    <path class="fil1" d="M116.13 46.87c0,0 10.75,-5.67 17.88,-1.58 7.14,4.1 7.95,12.57 14.98,10.4 0,0 5.36,-2.35 -0.52,-10.57 -5.88,-8.23 -9.91,-9.8 -17.57,-8.02 -7.66,1.79 -12.67,3.19 -14.77,9.77z"/>
    <path class="fil7" d="M115.71 46.8c0,0 3.54,-4.69 8.51,-5.95 4.96,-1.26 10.46,4.86 10.46,4.86 0,0 -12.7,-1.82 -18.97,1.09z"/>
    <path class="fil1" d="M114.07 52.71c0,0 1.19,8.72 0,14.03 0,0 -1.75,-13.54 0,-14.03z"/>
    <path class="fil1" d="M147.73 52.71c0,0 -1.19,8.72 0,14.03 0,0 1.72,-13.54 0,-14.03z"/>
    <path class="fil1" d="M125.93 52.01c-1.85,-0.87 -5.11,-1.85 -8.15,0.32 -0.53,0.35 -0.32,1.15 0.31,1.26 0.98,0.17 2.38,0.35 3.96,0.31 1.22,0 2.69,-0.31 3.78,-0.59 0.59,-0.14 0.7,-1.02 0.1,-1.3z"/>
    <path class="fil1" d="M143.74 52.01c-1.85,-0.87 -5.11,-1.85 -8.15,0.32 -0.53,0.35 -0.32,1.15 0.31,1.26 0.98,0.17 2.38,0.35 3.96,0.31 1.22,0 2.69,-0.31 3.78,-0.59 0.59,-0.14 0.7,-1.02 0.1,-1.3z"/>
    <g>
     <g>
      <path class="fil8" d="M136.64 74.13c-0.18,0.31 -0.39,0.63 -0.67,0.98 -0.91,1.08 -2.45,2.13 -5.07,2.17l0 0 -0.21 0 0 0c-2.45,-0.04 -3.99,-0.98 -4.9,-2 -0.35,-0.38 -0.63,-0.8 -0.8,-1.15 -0.46,-0.84 -0.56,-1.51 -0.56,-1.51l12.77 0.04c0,-0.04 -0.11,0.63 -0.56,1.47z"/>
     </g>
     <path class="fil6" d="M136.64 74.13c-0.18,0.31 -0.39,0.63 -0.67,0.98 -2.94,-1.3 -6.44,-1.54 -10.18,0.17 -0.35,-0.38 -0.63,-0.8 -0.8,-1.15 -0.46,-0.84 -0.56,-1.51 -0.56,-1.51l12.77 0.04c0,-0.04 -0.11,0.63 -0.56,1.47z"/>
    </g>
    <path class="fil9" d="M185.18 142.12l-114.44 0.11c0,0 2.14,-4.48 5.22,-10.4 0.21,-0.42 0.45,-0.87 0.7,-1.33 4.2,-8.01 9.83,-18.12 14.24,-23.58 5.07,-6.3 17.08,-10.82 25.2,-13.26 4.76,-1.44 8.19,-2.17 8.19,-2.17l13.15 0c0,0 3.08,0.66 7.46,1.96 8.12,2.41 20.29,7.34 25.93,13.47 1.22,1.36 2.41,2.97 3.5,4.79 6.96,11.55 10.85,30.41 10.85,30.41z"/>
    <path class="fil10" d="M185.18 142.12l-114.44 0.11c0,0 2.14,-4.48 5.22,-10.4 57.11,16.8 87.17,-10.7 94.06,-18.16 1.12,-1.19 2.66,-1.92 4.27,-1.96l0.04 0c6.96,11.55 10.85,30.41 10.85,30.41z"/>
    <line class="fil4 str2" x1="129.15" y1="62.93" x2="132.72" y2= "62.93" />
    <path class="fil2" d="M144.9 93.45c-14.18,15.57 -28.77,0.21 -28.77,0.21 4.76,-1.44 8.19,-2.17 8.19,-2.17l13.12 0c0,0 3.12,0.66 7.46,1.96z"/>
    <g>
     <line class="fil4 str3" x1="99.65" y1="124.52" x2="99.65" y2= "142.26" />
     <line class="fil4 str3" x1="99.65" y1="135.82" x2="94.89" y2= "129.73" />
    </g>
    <g>
     <line class="fil4 str3" x1="161.87" y1="124.52" x2="161.87" y2= "142.26" />
     <line class="fil4 str3" x1="161.87" y1="135.82" x2="166.14" y2= "130.43" />
    </g>
    <path class="fil4 str3" d="M115.47 100.44c0,0 17.56,12.01 29.46,-0.59"/>
    <path class="fil11" d="M146.19 125.09l2.94 -4.17 -2.73 -3.89 1.68 0 1.28 1.9c0.23,0.36 0.42,0.65 0.55,0.88 0.23,-0.33 0.44,-0.62 0.62,-0.88l1.34 -1.9 1.67 0 -2.74 3.89 2.92 4.17 -1.66 0 -1.67 -2.48 -0.38 -0.6 -2.15 3.08 -1.67 0z"/>
    <path class="fil1" d="M115.71 39.52c3.96,-16.59 43.47,-14.73 36.08,17.53 -2.2,9.66 -18.3,-21.98 -32.19,-14.21 -1.05,0.6 -2.35,0.42 -3.19,-0.38l0 0c-0.8,-0.77 -0.94,-1.89 -0.7,-2.94z"/>
   </g>
   <g>
    <g>
     <path class="fil12" d="M137.41 142.16c0,0 -0.04,0 -0.04,0 -0.1,0 -0.17,0 -0.28,0l-76.63 0c-1.02,0 -1.93,-0.49 -2.52,-1.23 -0.46,-0.56 -0.7,-1.26 -0.7,-1.99l0 -0.04 -11.94 -33.73c-0.91,-2.59 1.02,-5.29 3.75,-5.29l49.76 0c1.68,0 3.18,1.05 3.74,2.63l12.88 36.32c0,0.04 0.04,0.07 0.04,0.07l21.76 0c1.93,0.04 2.14,3.05 0.18,3.26z"/>
     <ellipse class="fil11" transform="matrix(0.945599 -0.3252 0.3252 0.945599 74.7965 122.139)" rx="5.77" ry="7"/>
     <path class="fil13" d="M137.16 138.94l-21.76 0c0,0 0,-0.04 -0.04,-0.07l-12.88 -36.33c-0.56,-1.57 -2.06,-2.62 -3.74,-2.62l-1.68 0c0,0 3.71,0.24 4.65,3.57 0.95,3.32 13.65,38.6 13.65,38.6l0.95 0.07 20.78 0c0.11,0 0.21,0 0.28,0 2,-0.18 1.79,-3.22 -0.21,-3.22z"/>
    </g>
    <path class="fil14" d="M137.41 142.16c0,0 -0.04,0 -0.04,0 -0.1,0 -0.17,0 -0.28,0l-76.63 0c-1.02,0 -1.93,-0.49 -2.52,-1.23 45.28,3.89 40.83,-41.05 40.83,-41.05 1.68,0 3.19,1.05 3.75,2.63l12.88 36.32c0,0.04 0.03,0.07 0.03,0.07l21.42 0c0.21,1.12 0.42,2.17 0.56,3.26z"/>
   </g>
   <g>
    <g>
     <g>
      <g>
       <path class="fil13" d="M46.28 119.9l0 1.12c-2.03,0.25 -2.55,1.96 -2.55,4.06l0 0.7c0,2.1 0.49,3.81 2.55,4.06l0 1.12 -38.98 0c-1.61,0 -2.91,-1.3 -2.91,-2.9l0 -5.25c0,-1.61 1.3,-2.91 2.91,-2.91l38.98 0z"/>
       <path class="fil11" d="M45.69 128.68c0.24,0.56 -0.21,1.16 -0.81,1.16l-37.23 0.03 0 -8.85 37.23 0.04c0.21,0 0.42,0.07 0.56,0.21 0.25,0.21 0.39,0.59 0.25,0.94 -0.32,0.74 -0.32,1.75 -0.32,2.91l0 0.7c0,1.12 0,2.13 0.32,2.86z"/>
       <path class="fil15" d="M45.44 121.27c-0.7,0.03 -33.63,1.75 -35.9,4.93 -0.63,0.88 -1.3,1.37 -1.93,1.44l0 -6.62 37.24 0.04c0.28,0 0.45,0.07 0.59,0.21z"/>
      </g>
      <path class="fil13" d="M9.57 130.96l-3.29 0c-1.05,0 -1.85,-0.84 -1.85,-1.86l0 -7.31c0,-1.05 0.84,-1.85 1.85,-1.85l3.29 0 0 11.02z"/>
      <path class="fil15" d="M45.69 128.68c0.24,0.56 -0.21,1.16 -0.81,1.16l-7.45 0c5.91,-0.67 5.53,-5.53 5.53,-5.53 0.07,-0.24 -4.66,-3.08 -4.59,-3.29l6.48 0c0.21,0 0.42,0.07 0.56,0.21 0.24,0.21 0.38,0.6 0.24,0.95 -0.31,0.73 -0.31,1.75 -0.31,2.9l0 0.7c0.03,1.16 0.03,2.17 0.35,2.9z"/>
     </g>
     <g>
      <polygon class="fil15" points="9.64,125.61 45.41,125.61 45.41,124.8 9.64,124.8 "/>
      <polygon class="fil15" points="9.64,123.79 45.41,123.79 45.41,122.98 9.64,122.98 "/>
      <polygon class="fil15" points="9.64,127.88 45.41,127.88 45.41,127.08 9.64,127.08 "/>
     </g>
     <polygon class="fil8" points="33.86,128.23 31.97,126.31 30.08,128.23 30.08,122.98 33.86,122.98 "/>
    </g>
    <g>
     <g>
      <g>
       <path class="fil8" d="M50.45 130.92l0 1.12c-2.03,0.25 -2.56,1.96 -2.56,4.06l0 0.7c0,2.1 0.49,3.82 2.56,4.06l0 1.12 -38.95 0c-1.61,0 -2.91,-1.29 -2.91,-2.9l0 -5.25c0,-1.61 1.3,-2.91 2.91,-2.91l38.95 0z"/>
       <path class="fil11" d="M49.85 139.71c0.25,0.56 -0.21,1.15 -0.8,1.15l-37.24 0.04 0 -8.86 37.24 0.04c0.21,0 0.42,0.07 0.56,0.21 0.24,0.21 0.38,0.59 0.24,0.94 -0.31,0.74 -0.31,1.75 -0.31,2.91l0 0.7c0.03,1.12 0,2.13 0.31,2.87z"/>
       <path class="fil15" d="M49.61 132.25c-0.7,0.04 -33.63,1.75 -35.91,4.94 -0.63,0.87 -1.29,1.36 -1.92,1.43l0 -6.58 37.23 0.04c0.28,-0.04 0.46,0.07 0.6,0.17z"/>
      </g>
      <path class="fil8" d="M13.74 141.98l-3.29 0c-1.05,0 -1.86,-0.84 -1.86,-1.85l0 -7.32c0,-1.05 0.84,-1.85 1.86,-1.85l3.29 0 0 11.02z"/>
      <path class="fil15" d="M49.85 139.71c0.25,0.56 -0.21,1.15 -0.8,1.15l-7.46 0c5.92,-0.66 5.53,-5.53 5.53,-5.53 0.07,-0.24 -4.65,-3.08 -4.58,-3.29l6.47 0c0.21,0 0.42,0.07 0.56,0.21 0.25,0.21 0.39,0.6 0.25,0.95 -0.32,0.73 -0.32,1.75 -0.32,2.9l0 0.7c0.07,1.16 0.04,2.17 0.35,2.91z"/>
     </g>
     <g>
      <polygon class="fil15" points="13.81,136.63 49.57,136.63 49.57,135.82 13.81,135.82 "/>
      <polygon class="fil15" points="13.81,134.81 49.57,134.81 49.57,134 13.81,134 "/>
      <polygon class="fil15" points="13.81,138.9 49.57,138.9 49.57,138.1 13.81,138.1 "/>
     </g>
     <polygon class="fil8" points="45.65,139.92 43.62,137.92 41.63,139.92 41.63,134.42 45.65,134.42 "/>
    </g>
   </g>
   <g>
    <path class="fil16" d="M239.24 146.78l0 0.8c0,2.49 -1.99,4.48 -4.48,4.48l-228.9 0c-2.1,0 -3.85,-1.43 -4.34,-3.32 0,0 0,0 0,0 -0.1,-0.35 -0.14,-0.74 -0.14,-1.12l0 -0.81c0,-2.48 2,-4.48 4.48,-4.48l228.87 0c2.48,0 4.51,2 4.51,4.45z"/>
    <path class="fil17" d="M239.24 146.78l0 0.8c0,2.49 -1.99,4.48 -4.48,4.48l-228.9 0c-2.1,0 -3.85,-1.43 -4.34,-3.32 0,0 0,0 0,0 -0.1,-0.74 -0.14,-1.12 -0.14,-1.12 128.36,4.48 233.35,-5.29 233.35,-5.29 2.48,0 4.51,2 4.51,4.45z"/>
   </g>
   <g>
    <path class="fil9" d="M233.5 24.16c0,-0.04 0,-0.07 0,-0.07 0,-0.04 0,-0.07 0,-0.07 0.42,-0.21 0.84,-0.42 1.26,-0.7 0.46,-0.32 0.91,-0.67 1.33,-1.05l-0.1 -0.35c-0.07,-0.42 -0.25,-0.81 -0.39,-1.19 -0.07,-0.18 -0.17,-0.39 -0.28,-0.56 -0.07,-0.21 -0.17,-0.39 -0.31,-0.56l-0.18 -0.32c-0.56,0 -1.15,0.07 -1.68,0.18 -0.49,0.1 -0.94,0.24 -1.36,0.42l-0.11 -0.11c0.18,-0.42 0.32,-0.87 0.39,-1.36 0.1,-0.53 0.17,-1.12 0.17,-1.68l-0.31 -0.18c-0.18,-0.1 -0.35,-0.21 -0.56,-0.31 -0.18,-0.11 -0.39,-0.18 -0.56,-0.28 -0.39,-0.14 -0.77,-0.32 -1.19,-0.39l-0.35 -0.1c-0.42,0.42 -0.77,0.87 -1.05,1.33 -0.28,0.42 -0.49,0.84 -0.7,1.26 -0.03,0 -0.07,0 -0.07,0 -0.03,0 -0.07,0 -0.07,0 -0.17,-0.42 -0.42,-0.84 -0.7,-1.26 -0.31,-0.46 -0.66,-0.91 -1.05,-1.33l-0.35 0.1c-0.42,0.07 -0.8,0.25 -1.19,0.39 -0.17,0.07 -0.38,0.17 -0.56,0.28 -0.17,0.07 -0.38,0.17 -0.56,0.31l-0.31 0.18c0,0.56 0.07,1.15 0.17,1.68 0.11,0.49 0.25,0.94 0.42,1.36 -0.03,0.04 -0.07,0.07 -0.1,0.11 -0.42,-0.18 -0.91,-0.32 -1.37,-0.42 -0.52,-0.11 -1.12,-0.18 -1.68,-0.18l-0.21 0.32c-0.1,0.17 -0.21,0.35 -0.31,0.56 -0.07,0.17 -0.18,0.38 -0.25,0.56 -0.14,0.38 -0.31,0.77 -0.38,1.19l-0.11 0.35c0.42,0.42 0.88,0.77 1.33,1.05 0.42,0.28 0.84,0.49 1.26,0.7 0,0.03 0,0.03 0,0.07 0,0.03 0,0.07 0,0.07 -0.42,0.17 -0.84,0.42 -1.26,0.7 -0.45,0.31 -0.91,0.66 -1.33,1.05l0.11 0.35c0.07,0.42 0.24,0.8 0.38,1.19 0.07,0.17 0.18,0.38 0.25,0.56 0.07,0.17 0.17,0.38 0.31,0.56l0.21 0.31c0.56,0 1.16,-0.07 1.68,-0.17 0.49,-0.11 0.95,-0.25 1.37,-0.42 0.03,0.03 0.07,0.07 0.1,0.1 -0.17,0.42 -0.31,0.87 -0.42,1.36 -0.1,0.53 -0.17,1.12 -0.17,1.68l0.31 0.21c0.18,0.11 0.35,0.21 0.56,0.28 0.18,0.11 0.39,0.18 0.56,0.28 0.39,0.14 0.77,0.32 1.19,0.39l0.35 0.1c0.39,-0.42 0.77,-0.87 1.05,-1.33 0.28,-0.42 0.49,-0.84 0.7,-1.26 0.04,0 0.07,0 0.07,0 0.04,0 0.07,0 0.07,0 0.21,0.42 0.42,0.84 0.7,1.26 0.31,0.46 0.66,0.91 1.05,1.33l0.35 -0.1c0.42,-0.07 0.8,-0.25 1.19,-0.39 0.21,-0.07 0.38,-0.17 0.56,-0.28 0.17,-0.07 0.38,-0.17 0.56,-0.28l0.31 -0.21c0,-0.56 -0.07,-1.15 -0.17,-1.68 -0.11,-0.49 -0.25,-0.94 -0.39,-1.36 0.04,-0.03 0.07,-0.07 0.11,-0.1 0.42,0.17 0.87,0.31 1.36,0.42 0.53,0.1 1.12,0.17 1.68,0.17l0.18 -0.31c0.1,-0.18 0.21,-0.35 0.31,-0.56 0.11,-0.18 0.18,-0.39 0.28,-0.56 0.14,-0.39 0.32,-0.77 0.39,-1.19l0.1 -0.35c-0.42,-0.39 -0.87,-0.77 -1.33,-1.05 -0.42,-0.28 -0.84,-0.49 -1.26,-0.7zm-6.01 2.8c-1.61,0 -2.91,-1.3 -2.91,-2.91 0,-1.61 1.3,-2.9 2.91,-2.9 1.6,0 2.9,1.29 2.9,2.9 -0.04,1.61 -1.3,2.91 -2.9,2.91z"/>
    <polyline class="fil4 str4" points="219.19,28.53 199.73,28.53 199.73,47.74 205.12,47.74 "/>
    <g>
     <rect class="fil11" x="205.58" y="58" width="10.71" height="1.92"/>
     <rect class="fil11" x="205.58" y="61.53" width="16.48" height="1.92"/>
     <rect class="fil11" x="205.58" y="65.1" width="5.6" height="1.92"/>
     <rect class="fil9" x="213.49" y="65.1" width="5.6" height="1.92"/>
     <rect class="fil9" x="221.12" y="65.1" width="8.05" height="1.92"/>
     <rect class="fil9" x="224.27" y="61.53" width="4.9" height="1.92"/>
     <rect class="fil9" x="218.46" y="58" width="10.71" height="1.92"/>
    </g>
    <rect class="fil11" x="232.73" y="45.61" width="0.35" height="21.35"/>
   </g>
   <g>
    <rect class="fil11" x="205.75" y="46.38" width="11.02" height="1.96"/>
    <rect class="fil11" x="205.75" y="50.02" width="16.94" height="1.96"/>
    <rect class="fil11" x="205.75" y="53.69" width="5.77" height="1.96"/>
    <rect class="fil9" x="213.87" y="53.69" width="5.77" height="1.96"/>
    <rect class="fil9" x="221.71" y="53.69" width="8.29" height="1.96"/>
    <rect class="fil9" x="224.97" y="50.02" width="5.04" height="1.96"/>
    <rect class="fil9" x="218.98" y="46.38" width="11.02" height="1.96"/>
   </g>
   <g>
    <g>
     <rect class="fil18" x="160.23" y="9.7" width="31.71" height="62.29"/>
     <rect class="fil11" x="163.83" y="22.93" width="23.8" height="2.52"/>
     <rect class="fil11" x="163.83" y="28.53" width="15.75" height="2.52"/>
     <rect class="fil9" x="181.92" y="28.53" width="5.7" height="2.52"/>
     <rect class="fil9" x="172.89" y="34.13" width="14.73" height="2.52"/>
     <rect class="fil11" x="163.83" y="34.13" width="6.89" height="2.52"/>
     <rect class="fil11" x="163.83" y="39.73" width="12.6" height="2.52"/>
     <rect class="fil9" x="178.35" y="39.73" width="9.27" height="2.52"/>
     <rect class="fil9" x="170.76" y="45.33" width="16.9" height="2.52"/>
     <rect class="fil11" x="163.83" y="45.33" width="5.11" height="2.52"/>
     <rect class="fil11" x="163.83" y="50.93" width="10.22" height="2.52"/>
     <rect class="fil9" x="175.73" y="50.93" width="11.9" height="2.52"/>
     <g>
      <g>
       <polygon class="fil9" points="186.93,65.83 186.93,66.53 184.34,67.51 184.34,66.81 186.16,66.15 184.34,65.55 184.34,64.85 "/>
      </g>
      <g>
       <polygon class="fil9" points="179.54,64.85 179.54,65.52 177.72,66.18 179.54,66.85 179.54,67.55 176.95,66.57 176.95,65.87 "/>
      </g>
      <g>
       <polygon class="fil9" points="182.62,62.93 183.43,62.93 181.5,68.46 180.7,68.46 "/>
      </g>
     </g>
     <g>
      <g>
       <polygon class="fil9" points="174.99,17.23 174.99,18.17 171.56,19.47 171.56,18.56 173.94,17.68 171.56,16.81 171.56,15.93 "/>
      </g>
      <g>
       <polygon class="fil9" points="168.69,15.93 168.69,16.81 166.31,17.68 168.69,18.56 168.69,19.47 165.26,18.17 165.26,17.23 "/>
      </g>
     </g>
    </g>
    <polygon class="fil11" points="160.96,4.62 160.96,0 161.57,0 161.57,1.9 163.96,1.9 163.96,0 164.57,0 164.57,4.62 163.96,4.62 163.96,2.44 161.57,2.44 161.57,4.62 "/>
    <polygon id="_1_0" class="fil11" points="166.76,4.62 166.76,0.54 165.24,0.54 165.24,0 168.9,0 168.9,0.54 167.38,0.54 167.38,4.62 "/>
    <path id="_2_1" class="fil11" d="M169.51 4.62l0 -4.62 0.92 0 1.09 3.27c0.1,0.3 0.18,0.53 0.22,0.68 0.06,-0.17 0.14,-0.41 0.25,-0.74l1.11 -3.21 0.82 0 0 4.62 -0.59 0 0 -3.87 -1.35 3.87 -0.55 0 -1.33 -3.94 0 3.94 -0.59 0z"/>
    <polygon id="_3" class="fil11" points="174.87,4.62 174.87,0 175.49,0 175.49,4.08 177.76,4.08 177.76,4.62 "/>
   </g>
   <g>
    <g>
     <g>
      <path class="fil19" d="M13.53 73.5c-0.67,-0.63 -1.44,-1.16 -2.24,-1.54 0,0 -0.04,0 -0.04,-0.04 -1.15,-0.52 -2.45,-0.77 -3.74,-0.7 -0.88,0.04 -1.79,0.25 -2.63,0.6 -0.07,0.03 -0.1,0.03 -0.17,0.07 -1.54,0.7 -2.77,1.82 -3.57,3.15 -1.3,2.17 -1.54,4.9 -0.46,7.35 1.79,4.02 6.51,5.81 10.5,4.02 3.68,-1.64 5.5,-5.74 4.41,-9.48 -0.1,-0.35 -0.21,-0.67 -0.38,-1.02 -0.39,-0.91 -0.98,-1.71 -1.68,-2.41zm-3.33 10.74c-2.76,1.23 -6.05,0 -7.28,-2.8 -0.73,-1.64 -0.59,-3.46 0.25,-4.93 0,0 0,-0.04 0.03,-0.04 0.56,-0.98 1.44,-1.82 2.56,-2.31 0.21,-0.1 0.42,-0.17 0.63,-0.24 0.03,0 0.03,0 0.07,-0.04 1.12,-0.31 2.24,-0.28 3.29,0.07 0,0 0,0 0,0 0.91,0.32 1.71,0.84 2.34,1.54 0.39,0.42 0.7,0.91 0.95,1.44 0.14,0.35 0.24,0.66 0.35,1.01 0.52,2.56 -0.74,5.22 -3.19,6.3z"/>
     </g>
     <g>
      <path class="fil9" d="M11.29 71.96c0.84,0.38 1.57,0.91 2.24,1.54 0.7,0.66 1.26,1.5 1.68,2.45 0.14,0.35 0.28,0.66 0.38,1.01l-2.27 1.02c-0.07,-0.35 -0.18,-0.7 -0.35,-1.02 -0.25,-0.52 -0.56,-1.01 -0.95,-1.43 -0.63,-0.7 -1.47,-1.26 -2.34,-1.54l0 0 0 0 1.54 -2 0.07 -0.03zm0 0l0 0 0 0z"/>
     </g>
     <line class="fil4" x1="11.29" y1="71.96" x2="9.71" y2= "73.95" />
     <g>
      <path class="fil1" d="M9.71 73.95l0 0c-1.05,-0.35 -2.2,-0.38 -3.29,-0.07 -0.03,0 -0.03,0 -0.07,0.04l-1.47 -2.07c0.88,-0.35 1.75,-0.56 2.63,-0.59 1.29,-0.07 2.59,0.17 3.74,0.7l-1.54 1.99zm0 0l0 0 0 0z"/>
     </g>
    </g>
    <g id="_2561430234080">
     <g>
      <line class="fil4 str5" x1="8.59" y1="87.15" x2="8.59" y2= "87.85" />
      <line class="fil4 str6" x1="8.59" y1="89.18" x2="8.59" y2= "99.22" />
      <polyline class="fil4 str5" points="8.59,99.92 8.59,100.62 9.29,100.62 "/>
      <line class="fil4 str7" x1="10.73" y1="100.62" x2="30.18" y2= "100.62" />
      <polyline class="fil4 str5" points="30.88,100.62 31.58,100.62 31.58,99.92 "/>
      <line class="fil4 str8" x1="31.58" y1="98.55" x2="31.58" y2= "88.34" />
      <line class="fil4 str5" x1="31.58" y1="87.64" x2="31.58" y2= "86.94" />
     </g>
    </g>
    <g id="_2561430234368">
     <rect class="fil18" x="23.19" y="5.82" width="67.47" height="80.45"/>
     <rect class="fil19" x="23.19" y="1.9" width="67.47" height="10.22"/>
     <g>
      <g>
       <polygon class="fil9" points="82.89,80.74 82.89,81.41 80.47,82.32 80.47,81.69 82.19,81.06 80.47,80.43 80.47,79.8 "/>
      </g>
      <g>
       <polygon class="fil9" points="75.96,79.83 75.96,80.46 74.24,81.09 75.96,81.72 75.96,82.35 73.54,81.44 73.54,80.78 "/>
      </g>
      <polygon class="fil9" points="77.22,82.7 78.36,78.65 78.74,78.65 77.61,82.7 "/>
     </g>
     <g>
      <g>
       <polygon class="fil9" points="39.18,18.63 39.18,19.47 36.17,20.62 36.17,19.82 38.3,19.05 36.17,18.28 36.17,17.47 "/>
      </g>
      <g>
       <polygon class="fil9" points="33.61,17.47 33.61,18.28 31.48,19.05 33.61,19.82 33.61,20.62 30.6,19.47 30.6,18.63 "/>
      </g>
     </g>
     <path class="fil11" d="M28.26 9.17l-0.91 -3.47 0.47 0 0.52 2.27c0.06,0.24 0.11,0.48 0.15,0.71 0.1,-0.37 0.15,-0.58 0.16,-0.64l0.66 -2.34 0.55 0 0.5 1.76c0.12,0.43 0.21,0.84 0.27,1.22 0.05,-0.22 0.11,-0.47 0.18,-0.75l0.54 -2.23 0.46 0 -0.95 3.47 -0.45 0 -0.72 -2.64c-0.06,-0.23 -0.1,-0.36 -0.12,-0.41 -0.04,0.16 -0.07,0.29 -0.1,0.4l-0.73 2.65 -0.48 0z"/>
     <polygon id="_1_2" class="fil11" points="32.25,9.17 32.25,5.7 34.75,5.7 34.75,6.11 32.71,6.11 32.71,7.17 34.62,7.17 34.62,7.58 32.71,7.58 32.71,8.76 34.83,8.76 34.83,9.17 "/>
     <path id="_2_3" class="fil11" d="M35.45 9.17l0 -3.47 1.3 0c0.26,0 0.48,0.03 0.64,0.1 0.16,0.07 0.28,0.18 0.37,0.33 0.09,0.14 0.14,0.3 0.14,0.46 0,0.14 -0.04,0.28 -0.12,0.42 -0.08,0.13 -0.2,0.23 -0.36,0.31 0.21,0.06 0.37,0.17 0.48,0.32 0.11,0.15 0.17,0.32 0.17,0.52 0,0.17 -0.04,0.32 -0.1,0.46 -0.07,0.14 -0.16,0.24 -0.26,0.32 -0.1,0.07 -0.23,0.13 -0.38,0.17 -0.15,0.04 -0.34,0.06 -0.56,0.06l-1.32 0zm0.46 -2.01l0.75 0c0.2,0 0.35,-0.02 0.44,-0.04 0.11,-0.04 0.2,-0.1 0.26,-0.18 0.06,-0.08 0.09,-0.18 0.09,-0.3 0,-0.12 -0.03,-0.22 -0.08,-0.3 -0.06,-0.09 -0.14,-0.15 -0.24,-0.18 -0.1,-0.04 -0.28,-0.05 -0.53,-0.05l-0.69 0 0 1.05zm0 1.6l0.86 0c0.15,0 0.25,0 0.32,-0.02 0.1,-0.01 0.19,-0.05 0.26,-0.09 0.07,-0.04 0.13,-0.11 0.18,-0.19 0.04,-0.09 0.06,-0.19 0.06,-0.3 0,-0.13 -0.03,-0.24 -0.1,-0.34 -0.06,-0.09 -0.15,-0.16 -0.27,-0.2 -0.12,-0.04 -0.29,-0.06 -0.51,-0.06l-0.8 0 0 1.2z"/>
     <g>
      <g>
       <rect class="fil20" x="34.87" y="25.52" width="19.84" height="3.64"/>
       <rect class="fil9" x="57.48" y="25.52" width="9.9" height="3.64"/>
       <rect class="fil11" x="69.69" y="25.52" width="13.65" height="3.64"/>
       <rect class="fil20" x="34.87" y="31.99" width="9.27" height="3.64"/>
       <rect class="fil9" x="46.63" y="31.99" width="15.82" height="3.64"/>
       <rect class="fil11" x="65.04" y="31.99" width="18.34" height="3.64"/>
       <rect class="fil20" x="34.87" y="38.47" width="12.18" height="3.64"/>
       <rect class="fil9" x="49.05" y="38.47" width="22.92" height="3.64"/>
       <rect class="fil11" x="74.42" y="38.47" width="8.96" height="3.64"/>
       <rect class="fil20" x="34.87" y="44.98" width="15.36" height="3.64"/>
       <rect class="fil9" x="52.51" y="44.98" width="14.91" height="3.64"/>
       <rect class="fil11" x="69.69" y="44.98" width="13.65" height="3.64"/>
       <rect class="fil20" x="34.87" y="51.45" width="6.75" height="3.64"/>
       <rect class="fil9" x="43.87" y="51.45" width="13.37" height="3.64"/>
       <rect class="fil11" x="59.3" y="51.45" width="24.08" height="3.64"/>
       <rect class="fil20" x="34.87" y="57.93" width="19.28" height="3.64"/>
       <rect class="fil9" x="56.54" y="57.93" width="5.91" height="3.64"/>
       <rect class="fil11" x="65.04" y="57.93" width="18.34" height="3.64"/>
       <rect class="fil20" x="34.87" y="64.43" width="25.09" height="3.64"/>
       <rect class="fil9" x="62.06" y="64.43" width="10.25" height="3.64"/>
       <rect class="fil11" x="74.42" y="64.43" width="8.96" height="3.64"/>
       <rect class="fil20" x="34.87" y="70.91" width="7.7" height="3.64"/>
       <rect class="fil9" x="44.78" y="70.91" width="9.34" height="3.64"/>
       <rect class="fil11" x="56.54" y="70.91" width="26.84" height="3.64"/>
      </g>
      <rect class="fil11" x="86" y="25.52" width="0.73" height="49.03"/>
      <circle class="fil11" cx="28.61" cy="27.31" r="1.82"/>
      <circle class="fil11" cx="28.61" cy="33.81" r="1.82"/>
      <circle class="fil11" cx="28.61" cy="40.29" r="1.82"/>
      <circle class="fil11" cx="28.61" cy="46.76" r="1.82"/>
      <circle class="fil11" cx="28.61" cy="53.27" r="1.82"/>
      <circle class="fil11" cx="28.61" cy="59.75" r="1.82"/>
      <circle class="fil11" cx="28.61" cy="66.22" r="1.82"/>
      <circle class="fil11" cx="28.61" cy="72.73" r="1.82"/>
     </g>
     <path class="fil1" d="M87.68 7.57c0,1.01 -0.84,1.85 -1.85,1.85 -1.02,0 -1.86,-0.84 -1.86,-1.85 0,-1.02 0.84,-1.86 1.86,-1.86 1.01,0 1.85,0.84 1.85,1.86z"/>
    </g>
    <path class="fil11" d="M83.1 7.53c0,1.02 -0.84,1.86 -1.86,1.86 -1.01,0 -1.85,-0.84 -1.85,-1.86 0,-1.01 0.84,-1.85 1.85,-1.85 1.02,0 1.86,0.8 1.86,1.85z"/>
   </g>
   <g>
    <rect class="fil16" x="99.65" y="15.27" width="6.54" height="1.82"/>
    <rect class="fil19" x="99.65" y="12.01" width="20.02" height="1.82"/>
    <g id="_2561430219104">
     <g>
      <line class="fil4 str5" x1="111.23" y1="17.47" x2="111.23" y2= "18.17" />
      <line class="fil4 str9" x1="111.23" y1="19.33" x2="111.23" y2= "23.49" />
      <polyline class="fil4 str5" points="111.23,24.05 111.23,24.75 111.93,24.75 "/>
      <line class="fil4 str10" x1="113.26" y1="24.75" x2="133.91" y2= "24.75" />
      <polyline class="fil4 str5" points="134.57,24.75 135.27,24.75 135.27,24.05 "/>
      <line class="fil4 str11" x1="135.27" y1="22.65" x2="135.27" y2= "20.52" />
      <line class="fil4 str5" x1="135.27" y1="19.82" x2="135.27" y2= "19.12" />
     </g>
    </g>
    <path class="fil11" d="M103.45 5.56l0.61 0.16c-0.13,0.5 -0.36,0.88 -0.69,1.14 -0.33,0.27 -0.74,0.4 -1.22,0.4 -0.49,0 -0.9,-0.1 -1.21,-0.31 -0.31,-0.2 -0.55,-0.49 -0.71,-0.88 -0.16,-0.38 -0.24,-0.79 -0.24,-1.23 0,-0.48 0.09,-0.9 0.27,-1.26 0.19,-0.36 0.45,-0.63 0.78,-0.82 0.34,-0.18 0.72,-0.27 1.12,-0.27 0.46,0 0.85,0.11 1.17,0.35 0.31,0.23 0.53,0.56 0.65,0.99l-0.6 0.14c-0.1,-0.33 -0.26,-0.58 -0.46,-0.73 -0.2,-0.16 -0.46,-0.23 -0.77,-0.23 -0.35,0 -0.65,0.08 -0.89,0.25 -0.23,0.17 -0.4,0.4 -0.5,0.69 -0.09,0.28 -0.14,0.58 -0.14,0.88 0,0.4 0.06,0.74 0.17,1.03 0.11,0.29 0.29,0.51 0.53,0.66 0.24,0.14 0.5,0.22 0.78,0.22 0.34,0 0.63,-0.1 0.87,-0.3 0.24,-0.2 0.4,-0.49 0.48,-0.88z"/>
    <path id="_1_4" class="fil11" d="M104.62 5.7l0.57 -0.05c0.03,0.23 0.09,0.42 0.19,0.57 0.1,0.15 0.26,0.27 0.47,0.36 0.21,0.09 0.44,0.14 0.7,0.14 0.24,0 0.44,-0.04 0.62,-0.11 0.18,-0.07 0.31,-0.16 0.4,-0.29 0.09,-0.12 0.13,-0.25 0.13,-0.39 0,-0.14 -0.04,-0.27 -0.13,-0.38 -0.08,-0.11 -0.22,-0.2 -0.41,-0.27 -0.13,-0.05 -0.4,-0.12 -0.82,-0.23 -0.43,-0.1 -0.73,-0.19 -0.9,-0.28 -0.22,-0.12 -0.38,-0.26 -0.49,-0.43 -0.1,-0.18 -0.16,-0.37 -0.16,-0.58 0,-0.23 0.07,-0.45 0.2,-0.65 0.13,-0.21 0.32,-0.36 0.58,-0.47 0.25,-0.1 0.54,-0.15 0.85,-0.15 0.34,0 0.64,0.05 0.9,0.16 0.26,0.11 0.46,0.27 0.6,0.49 0.15,0.21 0.22,0.45 0.23,0.73l-0.59 0.04c-0.03,-0.29 -0.13,-0.51 -0.31,-0.66 -0.19,-0.15 -0.46,-0.22 -0.81,-0.22 -0.37,0 -0.64,0.07 -0.81,0.2 -0.17,0.14 -0.25,0.3 -0.25,0.49 0,0.17 0.06,0.3 0.18,0.41 0.12,0.11 0.42,0.22 0.92,0.33 0.5,0.11 0.84,0.21 1.02,0.29 0.27,0.13 0.47,0.28 0.6,0.47 0.12,0.19 0.19,0.41 0.19,0.66 0,0.24 -0.07,0.47 -0.21,0.69 -0.14,0.22 -0.35,0.39 -0.61,0.51 -0.26,0.12 -0.56,0.18 -0.89,0.18 -0.42,0 -0.76,-0.06 -1.05,-0.19 -0.28,-0.12 -0.5,-0.3 -0.66,-0.54 -0.16,-0.25 -0.24,-0.52 -0.25,-0.83z"/>
    <path id="_2_5" class="fil11" d="M108.92 5.7l0.57 -0.05c0.03,0.23 0.09,0.42 0.19,0.57 0.1,0.15 0.26,0.27 0.47,0.36 0.21,0.09 0.44,0.14 0.71,0.14 0.23,0 0.43,-0.04 0.61,-0.11 0.18,-0.07 0.31,-0.16 0.4,-0.29 0.09,-0.12 0.13,-0.25 0.13,-0.39 0,-0.14 -0.04,-0.27 -0.12,-0.38 -0.09,-0.11 -0.23,-0.2 -0.42,-0.27 -0.12,-0.05 -0.4,-0.12 -0.82,-0.23 -0.43,-0.1 -0.72,-0.19 -0.89,-0.28 -0.22,-0.12 -0.39,-0.26 -0.5,-0.43 -0.1,-0.18 -0.16,-0.37 -0.16,-0.58 0,-0.23 0.07,-0.45 0.2,-0.65 0.13,-0.21 0.33,-0.36 0.58,-0.47 0.25,-0.1 0.54,-0.15 0.85,-0.15 0.34,0 0.64,0.05 0.9,0.16 0.26,0.11 0.46,0.27 0.61,0.49 0.14,0.21 0.21,0.45 0.22,0.73l-0.58 0.04c-0.04,-0.29 -0.14,-0.51 -0.32,-0.66 -0.19,-0.15 -0.45,-0.22 -0.81,-0.22 -0.37,0 -0.64,0.07 -0.81,0.2 -0.17,0.14 -0.25,0.3 -0.25,0.49 0,0.17 0.06,0.3 0.18,0.41 0.12,0.11 0.42,0.22 0.92,0.33 0.5,0.11 0.84,0.21 1.02,0.29 0.27,0.13 0.47,0.28 0.6,0.47 0.12,0.19 0.19,0.41 0.19,0.66 0,0.24 -0.07,0.47 -0.21,0.69 -0.14,0.22 -0.34,0.39 -0.61,0.51 -0.26,0.12 -0.56,0.18 -0.89,0.18 -0.41,0 -0.76,-0.06 -1.04,-0.19 -0.29,-0.12 -0.51,-0.3 -0.67,-0.54 -0.16,-0.25 -0.24,-0.52 -0.25,-0.83z"/>
    <g id="_2561430220352">
     <g>
      <path class="fil19" d="M140.59 11.66c-0.07,-0.24 -0.14,-0.49 -0.24,-0.7 -0.28,-0.66 -0.7,-1.22 -1.19,-1.68 -0.46,-0.45 -0.98,-0.8 -1.54,-1.08 0,0 -0.04,0 -0.04,0 -0.8,-0.35 -1.68,-0.53 -2.59,-0.49 -0.63,0.03 -1.22,0.17 -1.82,0.42 -0.03,0 -0.07,0.03 -0.1,0.03 -1.09,0.49 -1.93,1.26 -2.49,2.21 -0.7,1.15 -0.98,2.55 -0.7,3.92 0.07,0.38 0.21,0.77 0.39,1.15 1.22,2.77 4.51,4.03 7.28,2.8 1.68,-0.77 2.83,-2.27 3.15,-3.95 0.17,-0.88 0.14,-1.75 -0.11,-2.63zm-3.74 5.04c-1.93,0.88 -4.2,0 -5.08,-1.92 -0.07,-0.18 -0.14,-0.32 -0.17,-0.49 -0.32,-1.02 -0.14,-2.07 0.35,-2.94 0,0 0,0 0,-0.04 0.38,-0.7 0.98,-1.26 1.75,-1.61 0.14,-0.07 0.28,-0.1 0.45,-0.17 0,0 0.04,0 0.04,0 0.77,-0.21 1.57,-0.21 2.27,0.03 0,0 0,0 0,0 0.63,0.21 1.19,0.56 1.65,1.09 0.24,0.28 0.49,0.63 0.66,1.01 0.11,0.25 0.18,0.46 0.25,0.7 0.14,0.67 0.1,1.33 -0.07,1.93 -0.32,1.01 -1.05,1.92 -2.1,2.41z"/>
     </g>
     <path class="fil1" d="M140.7 14.29l-1.75 0c0.17,-0.63 0.21,-1.3 0.07,-1.93 -0.07,-0.24 -0.14,-0.49 -0.25,-0.7 -0.17,-0.38 -0.38,-0.7 -0.66,-1.01 -0.46,-0.49 -1.02,-0.88 -1.65,-1.09 0,0 0,0 0,0 -0.73,-0.24 -1.5,-0.28 -2.27,-0.03 0,0 -0.04,0 -0.04,0 -0.14,0.03 -0.28,0.1 -0.45,0.17 -0.77,0.35 -1.37,0.91 -1.75,1.61 0,0 0,0 0,0.04 -0.49,0.87 -0.63,1.92 -0.35,2.94l-1.75 0c-0.28,-1.37 0,-2.77 0.7,-3.92 0.56,-0.95 1.4,-1.72 2.48,-2.21 0.04,0 0.07,-0.03 0.11,-0.03 0.59,-0.25 1.22,-0.39 1.82,-0.42 0.91,-0.04 1.78,0.14 2.59,0.49 0,0 0.03,0 0.03,0 0.56,0.24 1.09,0.63 1.54,1.08 0.49,0.46 0.88,1.05 1.19,1.68 0.11,0.25 0.18,0.46 0.25,0.7 0.28,0.88 0.31,1.75 0.14,2.63z"/>
    </g>
    <rect class="fil19" x="107.52" y="15.27" width="12.14" height="1.82"/>
   </g>
   <g>
    <path class="fil0" d="M5.3 6.93c0.24,-0.01 0.43,-0.07 0.57,-0.19 0.15,-0.12 0.25,-0.28 0.29,-0.49 0.05,-0.2 0.08,-0.56 0.08,-1.06 0,-0.5 0.01,-0.83 0.02,-0.99 0.03,-0.26 0.08,-0.46 0.16,-0.61 0.07,-0.16 0.16,-0.28 0.27,-0.37 0.1,-0.09 0.24,-0.16 0.41,-0.21 0.12,-0.03 0.3,-0.05 0.56,-0.05l0.25 0 0 0.72 -0.14 0c-0.31,0 -0.51,0.05 -0.61,0.17 -0.11,0.11 -0.16,0.36 -0.16,0.75 0,0.79 -0.01,1.29 -0.05,1.49 -0.05,0.33 -0.14,0.57 -0.28,0.75 -0.13,0.17 -0.33,0.33 -0.62,0.46 0.34,0.14 0.58,0.35 0.73,0.63 0.15,0.29 0.22,0.75 0.22,1.4 0,0.58 0.01,0.93 0.01,1.04 0.03,0.21 0.09,0.35 0.19,0.43 0.09,0.08 0.28,0.12 0.57,0.12l0.14 0 0 0.71 -0.25 0c-0.3,0 -0.51,-0.02 -0.64,-0.07 -0.19,-0.07 -0.35,-0.18 -0.48,-0.33 -0.13,-0.16 -0.21,-0.35 -0.25,-0.59 -0.03,-0.24 -0.05,-0.63 -0.06,-1.17 0,-0.54 -0.03,-0.91 -0.07,-1.12 -0.05,-0.21 -0.15,-0.37 -0.29,-0.49 -0.15,-0.12 -0.34,-0.19 -0.57,-0.19l0 -0.74z"/>
    <path id="_1_6" class="fil0" d="M13.53 6.93l0 0.74c-0.24,0 -0.42,0.07 -0.57,0.19 -0.15,0.12 -0.25,0.28 -0.29,0.49 -0.05,0.2 -0.08,0.56 -0.08,1.06 0,0.5 -0.01,0.83 -0.02,0.99 -0.03,0.25 -0.08,0.46 -0.15,0.61 -0.08,0.15 -0.17,0.27 -0.28,0.37 -0.11,0.09 -0.25,0.16 -0.41,0.2 -0.12,0.04 -0.31,0.05 -0.57,0.05l-0.25 0 0 -0.71 0.14 0c0.31,0 0.52,-0.05 0.62,-0.17 0.11,-0.11 0.16,-0.36 0.16,-0.76 0,-0.75 0.01,-1.22 0.03,-1.42 0.05,-0.34 0.15,-0.6 0.29,-0.8 0.15,-0.2 0.35,-0.36 0.62,-0.47 -0.35,-0.16 -0.59,-0.38 -0.74,-0.65 -0.14,-0.28 -0.21,-0.74 -0.21,-1.38 0,-0.59 -0.01,-0.94 -0.01,-1.05 -0.02,-0.2 -0.08,-0.35 -0.18,-0.42 -0.1,-0.08 -0.29,-0.12 -0.58,-0.12l-0.14 0 0 -0.72 0.25 0c0.3,0 0.51,0.03 0.65,0.08 0.19,0.06 0.35,0.17 0.47,0.33 0.13,0.16 0.21,0.35 0.25,0.59 0.04,0.24 0.06,0.63 0.06,1.17 0,0.54 0.03,0.92 0.08,1.12 0.04,0.21 0.14,0.37 0.29,0.49 0.15,0.12 0.33,0.18 0.57,0.19z"/>
    <g id="_2561430216848">
     <rect class="fil11" x="4.99" y="20.03" width="7.17" height="3.43"/>
     <rect class="fil11" x="4.99" y="26.05" width="7.17" height="3.43"/>
     <rect class="fil9" x="4.99" y="32.03" width="7.17" height="3.43"/>
     <rect class="fil9" x="4.99" y="38.01" width="7.17" height="3.43"/>
     <rect class="fil9" x="4.99" y="44" width="7.17" height="3.43"/>
     <rect class="fil9" x="4.99" y="50.02" width="7.17" height="3.43"/>
     <rect class="fil9" x="4.99" y="56" width="7.17" height="3.43"/>
    </g>
   </g>
   <g>
    <path class="fil0" d="M215.31 87.5c0,-0.04 0,-0.04 0,-0.07 0,-0.04 0,-0.04 0,-0.07 0.35,-0.18 0.73,-0.35 1.08,-0.6 0.39,-0.24 0.77,-0.56 1.12,-0.91l-0.07 -0.31c-0.07,-0.35 -0.21,-0.67 -0.31,-1.02 -0.07,-0.17 -0.14,-0.31 -0.21,-0.49 -0.07,-0.17 -0.18,-0.31 -0.25,-0.45l-0.17 -0.28c-0.49,0 -0.98,0.07 -1.44,0.14 -0.42,0.07 -0.8,0.21 -1.15,0.35l-0.11 -0.11c0.14,-0.38 0.25,-0.77 0.35,-1.15 0.07,-0.46 0.14,-0.95 0.14,-1.44l-0.28 -0.17c-0.14,-0.11 -0.31,-0.18 -0.45,-0.25 -0.18,-0.07 -0.32,-0.17 -0.49,-0.21 -0.35,-0.1 -0.67,-0.24 -1.02,-0.31l-0.31 -0.07c-0.35,0.35 -0.67,0.73 -0.91,1.12 -0.25,0.35 -0.42,0.7 -0.6,1.08 -0.03,0 -0.03,0 -0.07,0 -0.03,0 -0.03,0 -0.07,0 -0.17,-0.35 -0.35,-0.73 -0.59,-1.08 -0.25,-0.39 -0.56,-0.77 -0.91,-1.12l-0.32 0.07c-0.35,0.07 -0.66,0.21 -1.01,0.31 -0.18,0.07 -0.32,0.14 -0.49,0.21 -0.18,0.07 -0.32,0.18 -0.46,0.25l-0.28 0.17c0,0.49 0.07,0.98 0.14,1.44 0.07,0.42 0.21,0.8 0.35,1.15 -0.03,0.04 -0.07,0.07 -0.1,0.11 -0.39,-0.14 -0.77,-0.25 -1.16,-0.35 -0.45,-0.07 -0.94,-0.14 -1.43,-0.14l-0.18 0.28c-0.1,0.14 -0.17,0.31 -0.24,0.45 -0.07,0.18 -0.14,0.32 -0.21,0.49 -0.14,0.35 -0.25,0.67 -0.32,1.02l-0.07 0.31c0.35,0.35 0.74,0.67 1.12,0.91 0.35,0.25 0.7,0.42 1.09,0.6 0,0.03 0,0.03 0,0.07 0,0.03 0,0.03 0,0.07 -0.35,0.17 -0.74,0.35 -1.09,0.59 -0.38,0.25 -0.77,0.56 -1.12,0.91l0.07 0.32c0.07,0.35 0.21,0.66 0.32,1.01 0.07,0.18 0.14,0.32 0.21,0.49 0.07,0.18 0.17,0.32 0.24,0.46l0.18 0.28c0.49,0 0.98,-0.07 1.43,-0.14 0.42,-0.07 0.81,-0.21 1.16,-0.35 0.03,0.03 0.07,0.07 0.1,0.1 -0.14,0.39 -0.24,0.77 -0.35,1.16 -0.07,0.45 -0.14,0.94 -0.14,1.43l0.28 0.18c0.14,0.1 0.32,0.17 0.46,0.24 0.17,0.07 0.31,0.18 0.49,0.21 0.35,0.14 0.66,0.25 1.01,0.32l0.32 0.07c0.35,-0.35 0.66,-0.74 0.91,-1.12 0.24,-0.35 0.42,-0.7 0.59,-1.09 0.04,0 0.04,0 0.07,0 0.04,0 0.04,0 0.07,0 0.18,0.35 0.35,0.74 0.6,1.09 0.24,0.38 0.56,0.77 0.91,1.12l0.31 -0.07c0.35,-0.07 0.67,-0.21 1.02,-0.32 0.17,-0.07 0.31,-0.14 0.49,-0.21 0.17,-0.07 0.31,-0.17 0.45,-0.24l0.28 -0.18c0,-0.49 -0.07,-0.98 -0.14,-1.43 -0.07,-0.42 -0.21,-0.81 -0.35,-1.16 0.04,-0.03 0.07,-0.07 0.11,-0.1 0.38,0.14 0.77,0.24 1.15,0.35 0.46,0.07 0.95,0.14 1.44,0.14l0.17 -0.28c0.11,-0.14 0.18,-0.32 0.25,-0.46 0.07,-0.17 0.17,-0.31 0.21,-0.49 0.1,-0.35 0.24,-0.66 0.31,-1.01l0.07 -0.32c-0.35,-0.35 -0.73,-0.66 -1.12,-0.91 -0.38,-0.24 -0.73,-0.42 -1.08,-0.59zm-5.18 2.38c-1.37,0 -2.49,-1.12 -2.49,-2.49 0,-1.36 1.12,-2.48 2.49,-2.48 1.36,0 2.48,1.12 2.48,2.48 0,1.4 -1.12,2.49 -2.48,2.49z"/>
    <g id="_2561430206048">
     <g>
      <rect class="fil1" x="189.34" y="78.33" width="3.25" height="14.7"/>
      <rect class="fil19" x="184.55" y="84.8" width="3.5" height="8.22"/>
      <rect class="fil21" x="179.68" y="87.43" width="3.5" height="5.6"/>
     </g>
     <g>
      <g>
       <line class="fil4 str5" x1="179.09" y1="90.68" x2="178.39" y2= "90.68" />
       <line class="fil4 str12" x1="176.6" y1="90.68" x2="173.94" y2= "90.68" />
       <polyline class="fil4 str5" points="173.07,90.68 172.37,90.68 172.37,91.38 "/>
       <line class="fil4 str13" x1="172.37" y1="92.68" x2="172.37" y2= "102.51" />
       <polyline class="fil4 str5" points="172.37,103.14 172.37,103.84 173.07,103.84 "/>
       <line class="fil4 str14" x1="174.26" y1="103.84" x2="178.39" y2= "103.84" />
       <line class="fil4 str5" x1="178.98" y1="103.84" x2="179.68" y2= "103.84" />
      </g>
     </g>
     <g>
      <rect class="fil11" x="180.8" y="103.21" width="9.24" height="1.64"/>
      <rect class="fil11" x="180.8" y="106.25" width="6.4" height="1.64"/>
      <rect class="fil11" x="180.8" y="109.3" width="8.08" height="1.64"/>
      <rect class="fil9" x="190.57" y="109.3" width="1.89" height="1.64"/>
      <rect class="fil9" x="194.2" y="109.3" width="6.96" height="1.64"/>
      <rect class="fil9" x="189.24" y="106.25" width="11.9" height="1.64"/>
      <rect class="fil9" x="191.9" y="103.21" width="9.24" height="1.64"/>
     </g>
    </g>
    <g id="_2561430207776">
     <rect class="fil1" x="226.79" y="86.52" width="6.09" height="2.9"/>
     <rect class="fil1" x="226.79" y="91.59" width="6.09" height="2.9"/>
     <rect class="fil1" x="226.79" y="96.7" width="6.09" height="2.9"/>
     <rect class="fil1" x="226.79" y="101.77" width="6.09" height="2.9"/>
     <rect class="fil11" x="226.79" y="106.85" width="6.09" height="2.9"/>
     <rect class="fil11" x="226.79" y="111.92" width="6.09" height="2.9"/>
     <rect class="fil11" x="226.79" y="117" width="6.09" height="2.9"/>
    </g>
   </g>
   <g>
    <g id="_2561430207728">
     <path class="fil22" d="M206.31 128.27c-2.27,0.17 -4.2,-0.39 -5.77,-1.37 -6.44,-3.99 -7.77,-15.19 -7.87,-16.03 0.07,0.25 0.7,1.65 7.38,6.13 0.56,0.38 1.05,0.77 1.54,1.15 0,0 0,0 0.03,0.04 5.78,4.76 4.69,10.08 4.69,10.08z"/>
     <path class="fil4 str15" d="M192.67 110.8c0,0 6.01,14.74 12.66,16.28"/>
     <path class="fil23" d="M206.31 128.27c-2.27,0.17 -4.2,-0.39 -5.77,-1.37 1.29,-3.04 1.05,-8.78 1.05,-8.78 0,0 0,0 0.03,0.03 5.78,4.8 4.69,10.12 4.69,10.12z"/>
    </g>
    <g id="_2561430196976">
     <path class="fil22" d="M223.36 111.68c-0.04,0.14 -0.11,0.7 -0.28,1.5 0,0 0,0 0,0 -0.95,4.24 -4.38,15.68 -13.58,14.53 0,0 -0.14,-0.98 0.14,-2.45 0.45,-2.17 1.92,-5.36 6.37,-8.05 6.61,-3.99 7.28,-5.29 7.35,-5.53z"/>
     <path class="fil4 str15" d="M223.08 112.59c0,0 -4.73,12.25 -12.92,14.73"/>
     <path class="fil23" d="M223.08 113.18c0,0 0,0 0,0 -0.95,4.24 -4.38,15.68 -13.58,14.53 0,0 -0.14,-0.98 0.14,-2.45l0 0c7.66,0.42 13.44,-12.08 13.44,-12.08z"/>
    </g>
    <g id="_2561430198752">
     <path class="fil24" d="M209.01 128.13c-0.25,0.38 -3.61,-1.02 -5.11,-5.04l0 0c-0.91,-2.42 -1.16,-5.81 0.35,-10.33 3.95,-11.86 2.31,-14.1 2.27,-14.17 0.07,0.03 3.5,1.75 5.74,5.88 0,0 0,0 0,0 2.42,4.58 3.36,12.11 -3.25,23.66z"/>
     <path class="fil4 str16" d="M206.52 98.55c0,0 5.15,6.51 3.19,18.87 -1.96,12.35 -0.7,10.71 -0.7,10.71"/>
     <path class="fil25" d="M209.01 128.13c-0.25,0.38 -3.61,-1.02 -5.11,-5.04 8.47,2.41 8.36,-18.62 8.36,-18.62 0,0 0,0 0,0 2.42,4.58 3.36,12.11 -3.25,23.66z"/>
    </g>
    <path class="fil22" d="M192.67 110.8c0,0 0,0 0,0.04 0,-0.04 0,-0.04 0,-0.04z"/>
    <path class="fil9" d="M215.52 127.95l0 9.48c0,2.77 -2.24,5.04 -5.04,5.04l-4.45 0c-1.82,0 -3.39,-0.98 -4.3,-2.41l0 0c-0.46,-0.77 -0.74,-1.65 -0.74,-2.63l0 -9.48 14.53 0z"/>
    <path class="fil9" d="M216.04 126.73l-15.57 0c-0.21,0 -0.39,0.17 -0.39,0.38l0 0.49c0,0.21 0.18,0.39 0.39,0.39l15.57 0c0.21,0 0.39,-0.18 0.39,-0.39l0 -0.49c0,-0.24 -0.18,-0.38 -0.39,-0.38z"/>
    <path class="fil26" d="M215.52 127.95l0 9.48c0,2.77 -2.24,5.04 -5.04,5.04l-4.45 0c-1.82,0 -3.39,-0.98 -4.3,-2.41 10.64,3.32 12.95,-4.48 12.53,-7.6 -0.42,-3.11 -4.24,-4.51 -4.24,-4.51l5.5 0z"/>
   </g>
  </g>
 </g>
</svg>
