<?xml version="1.0" encoding="UTF-8"?>
<!DOCTYPE svg PUBLIC "-//W3C//DTD SVG 1.1//EN" "http://www.w3.org/Graphics/SVG/1.1/DTD/svg11.dtd">
<!-- Creator: CorelDRAW 2021 (64 Bit) -->
<svg xmlns="http://www.w3.org/2000/svg" xml:space="preserve" width="250px" height="250px" version="1.1" style="shape-rendering:geometricPrecision; text-rendering:geometricPrecision; image-rendering:optimizeQuality; fill-rule:evenodd; clip-rule:evenodd"
viewBox="0 0 13.32 13.32"
 xmlns:xlink="http://www.w3.org/1999/xlink"
 xmlns:xodm="http://www.corel.com/coreldraw/odm/2003">
 <defs>
  <style type="text/css">
   <![CDATA[
    .str0 {stroke:#373435;stroke-width:0.09;stroke-miterlimit:22.9256}
    .str1 {stroke:#ED3237;stroke-width:0.09;stroke-miterlimit:22.9256}
    .str2 {stroke:white;stroke-width:0.09;stroke-miterlimit:22.9256}
    .fil3 {fill:none}
    .fil2 {fill:#FEFEFE}
    .fil10 {fill:#E6E7E8}
    .fil6 {fill:#BDBFC1}
    .fil1 {fill:#373435}
    .fil0 {fill:#ED3237}
    .fil7 {fill:#373435;fill-rule:nonzero}
    .fil9 {fill:url(#id9)}
    .fil8 {fill:url(#id10)}
    .fil5 {fill:url(#id11);fill-rule:nonzero}
    .fil4 {fill:url(#id12);fill-rule:nonzero}
   ]]>
  </style>
   <clipPath id="id0">
    <path d="M6.6 6.7c3.91,-0.54 5.1,5.49 0.71,6.13 4.34,-0.49 7.17,-5.59 4.33,-9.72 -1.33,-1.81 -3.42,-1.47 -4.33,-0.79 -0.93,0.7 -2.08,2.37 -0.71,4.38z"/>
   </clipPath>
   <clipPath id="id1">
    <path d="M9.24 3.48c0.7,0 1.28,0.58 1.28,1.28 0,0.71 -0.58,1.29 -1.28,1.29 -0.71,0 -1.29,-0.58 -1.29,-1.29 0,-0.7 0.58,-1.28 1.29,-1.28z"/>
   </clipPath>
   <clipPath id="id2">
    <path d="M6.03 10.51c-0.38,-0.6 -0.19,-1.39 0.41,-1.77 0.6,-0.37 1.39,-0.19 1.77,0.41 0.37,0.6 0.19,1.4 -0.41,1.77 -0.6,0.38 -1.39,0.19 -1.77,-0.41z"/>
   </clipPath>
   <mask id="id3">
  <radialGradient id="id4" gradientUnits="userSpaceOnUse" cx="2.95" cy="7.92" r="3.11" fx="2.95" fy="7.92">
   <stop offset="0" style="stop-opacity:1; stop-color:white"/>
   <stop offset="1" style="stop-opacity:0.145098; stop-color:white"/>
  </radialGradient>
    <rect style="fill:url(#id4)" x="1.04" y="6.66" width="8.62" height="5.48"/>
   </mask>
   <mask id="id5">
  <radialGradient id="id6" gradientUnits="userSpaceOnUse" cx="3.3" cy="2.05" r="3.11" fx="3.3" fy="2.05">
   <stop offset="0" style="stop-opacity:1; stop-color:white"/>
   <stop offset="1" style="stop-opacity:0.145098; stop-color:white"/>
  </radialGradient>
    <rect style="fill:url(#id6)" x="1.39" y="0.79" width="7.1" height="7.37"/>
   </mask>
   <mask id="id7">
  <radialGradient id="id8" gradientUnits="userSpaceOnUse" cx="8.18" cy="3.5" r="3.1" fx="8.18" fy="3.5">
   <stop offset="0" style="stop-opacity:1; stop-color:white"/>
   <stop offset="1" style="stop-opacity:0.145098; stop-color:white"/>
  </radialGradient>
    <rect style="fill:url(#id8)" x="6.26" y="2.24" width="6.05" height="8.74"/>
   </mask>
  <linearGradient id="id9" gradientUnits="userSpaceOnUse" x1="2.57" y1="5.5" x2="3.28" y2="5.77">
   <stop offset="0" style="stop-opacity:1; stop-color:#FFF212"/>
   <stop offset="1" style="stop-opacity:1; stop-color:#968900"/>
  </linearGradient>
  <linearGradient id="id10" gradientUnits="userSpaceOnUse" x1="3.64" y1="5.48" x2="4.39" y2="5.79">
   <stop offset="0" style="stop-opacity:1; stop-color:#EEDE2C"/>
   <stop offset="1" style="stop-opacity:1; stop-color:#968900"/>
  </linearGradient>
  <linearGradient id="id11" gradientUnits="userSpaceOnUse" x1="6.67" y1="9.41" x2="7.58" y2="10.42">
   <stop offset="0" style="stop-opacity:1; stop-color:#FF7211"/>
   <stop offset="0.470588" style="stop-opacity:1; stop-color:#DE6D11"/>
   <stop offset="1" style="stop-opacity:1; stop-color:#BC6711"/>
  </linearGradient>
  <linearGradient id="id12" gradientUnits="userSpaceOnUse" x1="9.15" y1="4.45" x2="9.87" y2="5.09">
   <stop offset="0" style="stop-opacity:1; stop-color:#039BE5"/>
   <stop offset="0.360784" style="stop-opacity:1; stop-color:#0266BE"/>
   <stop offset="1" style="stop-opacity:1; stop-color:#003096"/>
  </linearGradient>
 </defs>
 <g id="Camada_x0020_1">
  <metadata id="CorelCorpID_0Corel-Layer"/>
  <circle class="fil0 str0" cx="6.66" cy="6.66" r="6.61"/>
  <path class="fil1 str0" d="M6.6 6.69c-1.45,3.68 -7.29,1.77 -5.7,-2.37 -1.69,4.02 1.37,8.98 6.36,8.53 2.23,-0.28 2.96,-2.27 2.81,-3.39 -0.16,-1.15 -1.05,-2.97 -3.47,-2.77z"/>
  <path class="fil2" d="M6.6 6.7c3.91,-0.54 5.1,5.49 0.71,6.13 4.34,-0.49 7.17,-5.59 4.33,-9.72 -1.33,-1.81 -3.42,-1.47 -4.33,-0.79 -0.93,0.7 -2.08,2.37 -0.71,4.38z"/>
  <g style="clip-path:url(#id0)">
  </g>
  <path id="_1" class="fil3 str0" d="M6.6 6.7c3.91,-0.54 5.1,5.49 0.71,6.13 4.34,-0.49 7.17,-5.59 4.33,-9.72 -1.33,-1.81 -3.42,-1.47 -4.33,-0.79 -0.93,0.7 -2.08,2.37 -0.71,4.38z"/>
  <path class="fil1" d="M9.24 3.48c0.7,0 1.28,0.58 1.28,1.28 0,0.71 -0.58,1.29 -1.28,1.29 -0.71,0 -1.29,-0.58 -1.29,-1.29 0,-0.7 0.58,-1.28 1.29,-1.28z"/>
  <g style="clip-path:url(#id1)">
   <g id="_2299541173376">
    <polygon id="_1_0" class="fil4" points="9.78,4.11 9.24,4.11 8.69,4.11 8.7,4.35 9.24,4.35 9.53,4.35 9.51,4.59 9.24,4.59 8.96,4.59 8.97,4.83 9.24,4.83 9.5,4.83 9.48,5.1 9.24,5.18 8.99,5.1 8.98,4.95 8.75,4.95 8.76,5.28 9.24,5.43 9.71,5.28 9.75,4.59 "/>
   </g>
  </g>
  <path class="fil3 str1" d="M9.24 3.48c0.7,0 1.28,0.58 1.28,1.28 0,0.71 -0.58,1.29 -1.28,1.29 -0.71,0 -1.29,-0.58 -1.29,-1.29 0,-0.7 0.58,-1.28 1.29,-1.28z"/>
  <path class="fil2" d="M6.03 10.51c-0.38,-0.6 -0.19,-1.39 0.41,-1.77 0.6,-0.37 1.39,-0.19 1.77,0.41 0.37,0.6 0.19,1.4 -0.41,1.77 -0.6,0.38 -1.39,0.19 -1.77,-0.41z"/>
  <g style="clip-path:url(#id2)">
   <g id="_2299541172272">
    <polygon id="_1_1" class="fil5" points="7.12,10.65 6.59,10.48 6.57,10.11 6.83,10.11 6.85,10.28 7.12,10.37 7.39,10.28 7.41,9.98 7.12,9.98 6.56,9.98 6.51,9.18 7.12,9.18 7.73,9.18 7.71,9.44 7.12,9.44 6.79,9.44 6.81,9.71 7.12,9.71 7.69,9.71 7.65,10.48 "/>
   </g>
  </g>
  <path class="fil3 str1" d="M6.03 10.51c-0.38,-0.6 -0.19,-1.39 0.41,-1.77 0.6,-0.37 1.39,-0.19 1.77,0.41 0.37,0.6 0.19,1.4 -0.41,1.77 -0.6,0.38 -1.39,0.19 -1.77,-0.41z"/>
  <path class="fil6 str2" style="mask:url(#id3)" d="M6.67 6.72c-0.28,0.86 -0.83,1.55 -1.62,1.95 -0.79,0.39 -1.72,0.44 -2.59,0.18 -0.49,-0.15 -0.96,-0.4 -1.37,-0.73 0.26,0.66 0.62,1.28 1.08,1.83 1.41,1.68 3.43,2.4 5.44,2.06 0.77,-0.17 1.39,-0.6 1.73,-1.33 0.24,-0.5 0.35,-1.18 0.2,-1.75 -0.15,-0.59 -0.49,-1.19 -0.94,-1.6 -0.57,-0.51 -1.24,-0.66 -1.93,-0.61z"/>
  <g id="_2299541179376">
   <circle class="fil2" transform="matrix(0.828748 0.388767 -0.388767 0.828748 3.49843 5.63761)" r="1.38"/>
   <path class="fil7" d="M3.51 5.62l-0.02 0.04c-0.06,0.15 -0.06,0.3 -0.01,0.45 0.06,0.14 0.16,0.25 0.31,0.32 0.15,0.07 0.3,0.08 0.46,0.02 0.15,-0.06 0.26,-0.16 0.34,-0.32 0.13,-0.29 0.14,-0.59 0.03,-0.9 -0.12,-0.31 -0.32,-0.54 -0.61,-0.67 -0.31,-0.15 -0.6,-0.16 -0.9,-0.06 -0.29,0.11 -0.53,0.32 -0.69,0.63 0.1,-0.17 0.22,-0.28 0.36,-0.32 0.13,-0.05 0.28,-0.04 0.43,0.03 0.15,0.07 0.25,0.18 0.31,0.33 0.05,0.14 0.05,0.29 -0.01,0.45zm1.15 0.56c-0.15,0.32 -0.39,0.54 -0.73,0.66 -0.33,0.12 -0.65,0.11 -0.97,-0.04 -0.33,-0.15 -0.55,-0.4 -0.67,-0.73 -0.12,-0.33 -0.1,-0.66 0.05,-0.98 0.15,-0.32 0.39,-0.54 0.72,-0.66 0.34,-0.12 0.66,-0.1 0.98,0.05 0.32,0.15 0.54,0.39 0.66,0.72 0.12,0.33 0.11,0.66 -0.04,0.98z"/>
   <polygon class="fil8" points="4.29,5.55 4.23,6.08 3.7,6.2 3.7,6 4.06,5.92 4.07,5.76 3.7,5.81 3.7,5.08 4.34,5.08 4.32,5.25 3.91,5.25 3.91,5.59 "/>
   <polygon class="fil9" points="2.63,5.85 3,5.94 3,5.08 3.22,5.08 3.22,6.2 2.63,6.07 "/>
  </g>
  <path class="fil2 str2" style="mask:url(#id5)" d="M6.45 6.72c-0.54,-0.76 -0.79,-1.65 -0.67,-2.58 0.13,-0.92 0.61,-1.76 1.31,-2.36 0.39,-0.34 0.86,-0.6 1.35,-0.75 -0.67,-0.17 -1.38,-0.23 -2.09,-0.16 -2.14,0.21 -3.85,1.53 -4.7,3.49 -0.3,0.77 -0.29,1.57 0.1,2.31 0.27,0.5 0.76,1.01 1.3,1.22 0.57,0.22 1.24,0.29 1.82,0.14 0.73,-0.18 1.24,-0.68 1.58,-1.31z"/>
  <path class="fil10 str2" style="mask:url(#id7)" d="M6.68 6.57c0.92,-0.15 1.8,0.01 2.52,0.54 0.7,0.52 1.14,1.34 1.27,2.24 0.07,0.52 0.04,1.06 -0.1,1.58 0.51,-0.54 0.94,-1.17 1.26,-1.84 0.98,-2.06 0.8,-4.22 -0.39,-5.86 -0.48,-0.62 -1.15,-0.97 -1.98,-0.93 -0.57,0.02 -1.26,0.24 -1.73,0.64 -0.49,0.42 -0.91,1 -1.1,1.6 -0.24,0.75 -0.1,1.43 0.25,2.03z"/>
 </g>
</svg>
